<mxfile host="Electron" agent="Mozilla/5.0 (Windows NT 10.0; Win64; x64) AppleWebKit/537.36 (KHTML, like Gecko) draw.io/28.0.6 Chrome/138.0.7204.100 Electron/37.2.3 Safari/537.36" version="28.0.6">
  <diagram name="Trang-1" id="4XgL7WzsLW3-dsDCaf7v">
    <mxGraphModel dx="273" dy="618" grid="1" gridSize="10" guides="1" tooltips="1" connect="1" arrows="1" fold="1" page="1" pageScale="1" pageWidth="827" pageHeight="1169" math="0" shadow="0">
      <root>
        <mxCell id="0" />
        <mxCell id="1" parent="0" />
        <mxCell id="WI00lLoNJXgTZrPOS6Ls-2" style="edgeStyle=orthogonalEdgeStyle;rounded=0;orthogonalLoop=1;jettySize=auto;html=1;entryX=0.5;entryY=0;entryDx=0;entryDy=0;" edge="1" parent="1" source="WI00lLoNJXgTZrPOS6Ls-1" target="WI00lLoNJXgTZrPOS6Ls-5">
          <mxGeometry relative="1" as="geometry">
            <mxPoint x="237.5" y="190" as="targetPoint" />
          </mxGeometry>
        </mxCell>
        <mxCell id="WI00lLoNJXgTZrPOS6Ls-1" value="Start" style="ellipse;whiteSpace=wrap;html=1;fillColor=#60a917;fontColor=#ffffff;strokeColor=#2D7600;fontSize=27;" vertex="1" parent="1">
          <mxGeometry x="160" y="20" width="160" height="100" as="geometry" />
        </mxCell>
        <mxCell id="WI00lLoNJXgTZrPOS6Ls-4" value="Kiểm tra xem món đồ có trong cửa hàng không" style="rounded=0;whiteSpace=wrap;html=1;" vertex="1" parent="1">
          <mxGeometry x="135" y="270" width="210" height="60" as="geometry" />
        </mxCell>
        <mxCell id="WI00lLoNJXgTZrPOS6Ls-7" style="edgeStyle=orthogonalEdgeStyle;rounded=0;orthogonalLoop=1;jettySize=auto;html=1;entryX=0.5;entryY=0;entryDx=0;entryDy=0;" edge="1" parent="1" source="WI00lLoNJXgTZrPOS6Ls-5" target="WI00lLoNJXgTZrPOS6Ls-4">
          <mxGeometry relative="1" as="geometry" />
        </mxCell>
        <mxCell id="WI00lLoNJXgTZrPOS6Ls-5" value="&lt;div style=&quot;&quot;&gt;&lt;span style=&quot;background-color: transparent; color: light-dark(rgb(0, 0, 0), rgb(255, 255, 255));&quot;&gt;Vào cửa hàng và&lt;/span&gt;&lt;/div&gt;&lt;div style=&quot;&quot;&gt;&lt;span style=&quot;background-color: transparent; color: light-dark(rgb(0, 0, 0), rgb(255, 255, 255));&quot;&gt;&amp;nbsp;tìm kiếm món đồ&lt;/span&gt;&lt;/div&gt;" style="shape=parallelogram;perimeter=parallelogramPerimeter;whiteSpace=wrap;html=1;fixedSize=1;align=center;" vertex="1" parent="1">
          <mxGeometry x="145" y="160" width="190" height="60" as="geometry" />
        </mxCell>
        <mxCell id="WI00lLoNJXgTZrPOS6Ls-9" value="" style="endArrow=classic;html=1;rounded=0;exitX=0.5;exitY=1;exitDx=0;exitDy=0;" edge="1" parent="1" source="WI00lLoNJXgTZrPOS6Ls-4">
          <mxGeometry width="50" height="50" relative="1" as="geometry">
            <mxPoint x="220" y="300" as="sourcePoint" />
            <mxPoint x="160" y="400" as="targetPoint" />
          </mxGeometry>
        </mxCell>
        <mxCell id="WI00lLoNJXgTZrPOS6Ls-10" value="" style="endArrow=classic;html=1;rounded=0;exitX=0.5;exitY=1;exitDx=0;exitDy=0;" edge="1" parent="1" source="WI00lLoNJXgTZrPOS6Ls-4">
          <mxGeometry width="50" height="50" relative="1" as="geometry">
            <mxPoint x="220" y="300" as="sourcePoint" />
            <mxPoint x="320" y="400" as="targetPoint" />
          </mxGeometry>
        </mxCell>
        <mxCell id="WI00lLoNJXgTZrPOS6Ls-11" value="Có" style="rhombus;whiteSpace=wrap;html=1;" vertex="1" parent="1">
          <mxGeometry x="120" y="400" width="80" height="80" as="geometry" />
        </mxCell>
        <mxCell id="WI00lLoNJXgTZrPOS6Ls-16" style="edgeStyle=orthogonalEdgeStyle;rounded=0;orthogonalLoop=1;jettySize=auto;html=1;" edge="1" parent="1" source="WI00lLoNJXgTZrPOS6Ls-12" target="WI00lLoNJXgTZrPOS6Ls-15">
          <mxGeometry relative="1" as="geometry" />
        </mxCell>
        <mxCell id="WI00lLoNJXgTZrPOS6Ls-12" value="Không Có" style="rhombus;whiteSpace=wrap;html=1;" vertex="1" parent="1">
          <mxGeometry x="280" y="400" width="80" height="80" as="geometry" />
        </mxCell>
        <mxCell id="WI00lLoNJXgTZrPOS6Ls-13" value="" style="endArrow=classic;html=1;rounded=0;exitX=0.5;exitY=1;exitDx=0;exitDy=0;entryX=0.5;entryY=0;entryDx=0;entryDy=0;entryPerimeter=0;" edge="1" parent="1" source="WI00lLoNJXgTZrPOS6Ls-11" target="WI00lLoNJXgTZrPOS6Ls-14">
          <mxGeometry width="50" height="50" relative="1" as="geometry">
            <mxPoint x="220" y="400" as="sourcePoint" />
            <mxPoint x="160" y="540" as="targetPoint" />
          </mxGeometry>
        </mxCell>
        <mxCell id="WI00lLoNJXgTZrPOS6Ls-14" value="Mua món đồ" style="rounded=0;whiteSpace=wrap;html=1;" vertex="1" parent="1">
          <mxGeometry x="100" y="550" width="120" height="60" as="geometry" />
        </mxCell>
        <mxCell id="WI00lLoNJXgTZrPOS6Ls-15" value="Hỏi nhân viên hoặc rời đi" style="rounded=0;whiteSpace=wrap;html=1;" vertex="1" parent="1">
          <mxGeometry x="260" y="550" width="120" height="60" as="geometry" />
        </mxCell>
        <mxCell id="WI00lLoNJXgTZrPOS6Ls-17" value="&lt;font style=&quot;font-size: 24px;&quot;&gt;End&lt;/font&gt;" style="ellipse;whiteSpace=wrap;html=1;fillColor=#a20025;fontColor=#ffffff;strokeColor=#6F0000;" vertex="1" parent="1">
          <mxGeometry x="180" y="680" width="120" height="80" as="geometry" />
        </mxCell>
        <mxCell id="WI00lLoNJXgTZrPOS6Ls-20" value="" style="endArrow=classic;html=1;rounded=0;entryX=0.5;entryY=0;entryDx=0;entryDy=0;exitX=0.5;exitY=1;exitDx=0;exitDy=0;" edge="1" parent="1" source="WI00lLoNJXgTZrPOS6Ls-14" target="WI00lLoNJXgTZrPOS6Ls-17">
          <mxGeometry width="50" height="50" relative="1" as="geometry">
            <mxPoint x="220" y="490" as="sourcePoint" />
            <mxPoint x="270" y="440" as="targetPoint" />
          </mxGeometry>
        </mxCell>
        <mxCell id="WI00lLoNJXgTZrPOS6Ls-21" value="" style="endArrow=classic;html=1;rounded=0;exitX=0.5;exitY=1;exitDx=0;exitDy=0;entryX=0.432;entryY=0.05;entryDx=0;entryDy=0;entryPerimeter=0;" edge="1" parent="1" source="WI00lLoNJXgTZrPOS6Ls-15" target="WI00lLoNJXgTZrPOS6Ls-17">
          <mxGeometry width="50" height="50" relative="1" as="geometry">
            <mxPoint x="270" y="490" as="sourcePoint" />
            <mxPoint x="240" y="677" as="targetPoint" />
          </mxGeometry>
        </mxCell>
      </root>
    </mxGraphModel>
  </diagram>
</mxfile>
